<svg width="69" height="15" viewBox="0 0 69 15" fill="none" xmlns="http://www.w3.org/2000/svg">
<path fill-rule="evenodd" clip-rule="evenodd" d="M0.375 0C0.167893 0 0 0.167893 0 0.375V2.625C0 2.83211 0.167893 3 0.375 3H9.92485C10.0954 3 10.2444 2.88496 10.2876 2.72001L10.8769 0.47001C10.9392 0.232331 10.7598 0 10.5141 0H0.375ZM2.76786 15H0.375C0.167893 15 0 14.8321 0 14.625V6.375C0 6.16789 0.167893 6 0.375 6H8.94271C9.1884 6 9.36772 6.23233 9.30547 6.47001L8.71619 8.72001C8.67299 8.88496 8.52394 9 8.35342 9H3.51786C3.31075 9 3.14286 9.16789 3.14286 9.375V14.625C3.14286 14.8321 2.97496 15 2.76786 15Z" fill="#FF5762"/>
<path fill-rule="evenodd" clip-rule="evenodd" d="M15.6237 0C15.8315 0 16 0.168494 16 0.376343V14.6237C16 14.8315 15.8315 15 15.6237 15H13.3763C13.1685 15 13 14.8315 13 14.6237V0.376344C13 0.168495 13.1685 0 13.3763 0H15.6237Z" fill="#FF5762"/>
<path d="M30.3175 0H32.6237C32.8315 0 33 0.168494 33 0.376343V14.6234C33 14.8312 32.8315 14.9997 32.6237 14.9997H31.0963C30.8721 14.9997 30.6597 14.8998 30.5167 14.7272L23.3919 6.12708C23.2794 5.99134 23.0588 6.07086 23.0588 6.24713V14.6237C23.0588 14.8315 22.8903 15 22.6825 15H20.3763C20.1685 15 20 14.8315 20 14.6237V0.376344C20 0.168495 20.1685 0 20.3763 0H21.9033C22.1274 0 22.3399 0.0998966 22.4829 0.272503L29.6081 8.87318C29.7206 9.00892 29.9412 8.9294 29.9412 8.75313V0.376344C29.9412 0.168495 30.1097 0 30.3175 0Z" fill="#FF5762"/>
<path d="M51 7.5C51 11.6421 47.6421 15 43.5 15C39.3579 15 36 11.6421 36 7.5C36 3.35786 39.3579 0 43.5 0C47.6421 0 51 3.35786 51 7.5ZM38.9839 7.5C38.9839 9.99415 41.0058 12.0161 43.5 12.0161C45.9942 12.0161 48.0161 9.99415 48.0161 7.5C48.0161 5.00585 45.9942 2.98394 43.5 2.98394C41.0058 2.98394 38.9839 5.00585 38.9839 7.5Z" fill="#FF5762"/>
<path d="M68.6237 15H66.3763C66.1685 15 66 14.8315 66 14.6237V6.52985C66 6.34949 65.7708 6.27245 65.6619 6.41618L61.9499 11.3137C61.724 11.6118 61.276 11.6118 61.0501 11.3137L57.3381 6.41618C57.2292 6.27245 57 6.34949 57 6.52985V14.6237C57 14.8315 56.8315 15 56.6237 15H54.3763C54.1685 15 54 14.8315 54 14.6237V0.384162C54 0.176929 54.1675 0.00869065 54.3748 0.00782108L56.0507 0.000788746C56.169 0.000292163 56.2807 0.0554899 56.3522 0.149805L61.35 6.74395C61.4253 6.8433 61.5747 6.8433 61.65 6.74395L66.6371 0.16401C66.7082 0.0701373 66.8192 0.01499 66.937 0.01499H68.6237C68.8315 0.01499 69 0.183484 69 0.391333V14.6237C69 14.8315 68.8315 15 68.6237 15Z" fill="#FF5762"/>
</svg>
