<svg width="21" height="25" viewBox="0 0 21 25" fill="none" xmlns="http://www.w3.org/2000/svg">
<path d="M21 24.25C21 24.25 17.4647 22.8588 14.6046 21.7444H2.57812C1.15441 21.7444 0 20.5204 0 19.0108V2.98358C0 1.47398 1.15441 0.25 2.57812 0.25H18.4211C19.8448 0.25 20.9993 1.47398 20.9993 2.98358V16.7868L21 24.25ZM17.8961 15.2636C17.6482 14.9579 17.2156 14.9225 16.9269 15.1844C16.9044 15.2044 14.6653 17.1956 10.4993 17.1956C6.38491 17.1956 4.11134 15.2188 4.07083 15.1828C3.78221 14.9222 3.35071 14.9579 3.10319 15.2628C2.98435 15.4094 2.92534 15.6005 2.93928 15.7937C2.95323 15.9869 3.03897 16.1662 3.17745 16.2916C3.28397 16.3876 5.83058 18.654 10.4993 18.654C15.1687 18.654 17.7153 16.3876 17.8218 16.2916C17.9601 16.1662 18.0456 15.9871 18.0596 15.7941C18.0735 15.6011 18.0147 15.4101 17.8961 15.2636Z" fill="white"/>
<path d="M21 24.25C21 24.25 17.4647 22.8588 14.6046 21.7444H2.57812C1.15441 21.7444 0 20.5204 0 19.0108V2.98358C0 1.47398 1.15441 0.25 2.57812 0.25H18.4211C19.8448 0.25 20.9993 1.47398 20.9993 2.98358V16.7868L21 24.25ZM17.8961 15.2636C17.6482 14.9579 17.2156 14.9225 16.9269 15.1844C16.9044 15.2044 14.6653 17.1956 10.4993 17.1956C6.38491 17.1956 4.11134 15.2188 4.07083 15.1828C3.78221 14.9222 3.35071 14.9579 3.10319 15.2628C2.98435 15.4094 2.92534 15.6005 2.93928 15.7937C2.95323 15.9869 3.03897 16.1662 3.17745 16.2916C3.28397 16.3876 5.83058 18.654 10.4993 18.654C15.1687 18.654 17.7153 16.3876 17.8218 16.2916C17.9601 16.1662 18.0456 15.9871 18.0596 15.7941C18.0735 15.6011 18.0147 15.4101 17.8961 15.2636Z" fill="white"/>
</svg>
