<svg width="17" height="16" viewBox="0 0 17 16" fill="none" xmlns="http://www.w3.org/2000/svg">
<path d="M9.44118 8L12.3048 5.13642C12.5651 4.87609 12.5651 4.45557 12.3048 4.19524C12.0444 3.93492 11.6239 3.93492 11.3636 4.19524L8.5 7.05882L5.63642 4.19524C5.3761 3.93492 4.95557 3.93492 4.69524 4.19524C4.43492 4.45557 4.43492 4.87609 4.69524 5.13642L7.55882 8L4.69524 10.8636C4.43492 11.1239 4.43492 11.5444 4.69524 11.8048C4.95557 12.0651 5.3761 12.0651 5.63642 11.8048L8.5 8.94118L11.3636 11.8048C11.6239 12.0651 12.0444 12.0651 12.3048 11.8048C12.5651 11.5444 12.5651 11.1239 12.3048 10.8636L9.44118 8Z" fill="#415DE8"/>
</svg>
